<svg width="16" height="16" viewBox="0 0 16 16" fill="none" xmlns="http://www.w3.org/2000/svg">
<g id="close_circle">
<path id="Vector" d="M8.00016 1.3335C4.3135 1.3335 1.3335 4.3135 1.3335 8.00016C1.3335 11.6868 4.3135 14.6668 8.00016 14.6668C11.6868 14.6668 14.6668 11.6868 14.6668 8.00016C14.6668 4.3135 11.6868 1.3335 8.00016 1.3335ZM10.8668 10.8668C10.6068 11.1268 10.1868 11.1268 9.92683 10.8668L8.00016 8.94016L6.0735 10.8668C5.8135 11.1268 5.3935 11.1268 5.1335 10.8668C4.8735 10.6068 4.8735 10.1868 5.1335 9.92683L7.06016 8.00016L5.1335 6.0735C4.8735 5.8135 4.8735 5.3935 5.1335 5.1335C5.3935 4.8735 5.8135 4.8735 6.0735 5.1335L8.00016 7.06016L9.92683 5.1335C10.1868 4.8735 10.6068 4.8735 10.8668 5.1335C11.1268 5.3935 11.1268 5.8135 10.8668 6.0735L8.94016 8.00016L10.8668 9.92683C11.1202 10.1802 11.1202 10.6068 10.8668 10.8668Z" fill="#BA1A2E"/>
</g>
</svg>
