<svg width="14" height="16" viewBox="0 0 14 16" fill="none" xmlns="http://www.w3.org/2000/svg">
<g id="close">
<path id="Vector" d="M10.6749 4.06895C10.4474 3.8252 10.0799 3.8252 9.85242 4.06895L6.99992 7.11895L4.14742 4.0627C3.91992 3.81895 3.55242 3.81895 3.32492 4.0627C3.09742 4.30645 3.09742 4.7002 3.32492 4.94395L6.17742 8.0002L3.32492 11.0564C3.09742 11.3002 3.09742 11.6939 3.32492 11.9377C3.55242 12.1814 3.91992 12.1814 4.14742 11.9377L6.99992 8.88144L9.85242 11.9377C10.0799 12.1814 10.4474 12.1814 10.6749 11.9377C10.9024 11.6939 10.9024 11.3002 10.6749 11.0564L7.82242 8.0002L10.6749 4.94395C10.8966 4.70645 10.8966 4.30645 10.6749 4.06895Z" fill="white"/>
</g>
</svg>
