<svg width="104" height="104" viewBox="0 0 104 104" fill="none" xmlns="http://www.w3.org/2000/svg">
<g id="Motif 2">
<rect id="Rectangle 20971" width="104" height="104" fill="#00A38D"/>
<g id="Aa">
<path id="Vector" d="M77.2753 69.1005C74.8885 73.0559 71.6832 75.2382 66.7049 75.2382C61.1128 75.2382 57.6348 72.2375 57.6348 66.4408C57.6348 62.8946 58.7941 60.1668 62.6813 58.1891C65.4774 56.8251 69.9783 55.8022 76.7298 55.1202V52.8016C76.7298 49.8009 75.3658 48.096 72.0242 48.096C68.8872 48.096 67.2505 49.6645 67.2505 52.4606V53.1425H59.1351V52.3242C59.1351 46.1183 63.0223 40.8672 72.297 40.8672C81.5717 40.8672 85.7317 45.7773 85.7317 53.3471V66.4408C85.7317 68.4867 86.4136 69.0323 88.8005 69.2369V74.829H85.6635C80.6851 74.829 78.2983 73.7379 77.2753 69.1005ZM66.5003 65.4179C66.5003 67.6684 67.7278 69.0323 70.2511 69.0323C73.9337 69.0323 76.7298 66.2362 76.7298 62.4854V59.6212C72.8426 60.0304 70.5921 60.6441 69.16 61.3261C67.1141 62.3491 66.5003 63.6448 66.5003 65.4179Z" fill="#E6F6F4"/>
<path id="Vector_2" d="M47.1658 74.6916L44.5061 66.0988H28.2754L25.6157 74.6916H16L31.0714 29H42.1874L57.2588 74.6916H47.1658ZM36.3225 40.0478L30.594 58.5972H42.1874L36.4589 40.0478H36.3225Z" fill="#E6F6F4"/>
</g>
</g>
</svg>
