<svg width="16" height="16" viewBox="0 0 16 16" fill="none" xmlns="http://www.w3.org/2000/svg">
<g id="check_circle">
<path id="Vector" d="M8.00016 1.3335C4.32016 1.3335 1.3335 4.32016 1.3335 8.00016C1.3335 11.6802 4.32016 14.6668 8.00016 14.6668C11.6802 14.6668 14.6668 11.6802 14.6668 8.00016C14.6668 4.32016 11.6802 1.3335 8.00016 1.3335ZM6.1935 10.8602L3.80016 8.46683C3.54016 8.20683 3.54016 7.78683 3.80016 7.52683C4.06016 7.26683 4.48016 7.26683 4.74016 7.52683L6.66683 9.44683L11.2535 4.86016C11.5135 4.60016 11.9335 4.60016 12.1935 4.86016C12.4535 5.12016 12.4535 5.54016 12.1935 5.80016L7.1335 10.8602C6.88016 11.1202 6.4535 11.1202 6.1935 10.8602Z" fill="#3A850F"/>
</g>
</svg>
