<svg width="104" height="104" viewBox="0 0 104 104" fill="none" xmlns="http://www.w3.org/2000/svg">
<g id="Motif 5">
<rect id="Rectangle 20972" width="104" height="104" fill="#8AD5CB"/>
<rect id="Rectangle 20983" x="15.4038" y="15.4072" width="73.1852" height="73.1852" rx="36.5926" fill="#00A38D"/>
<path id="Vector" d="M38.5767 54.0581H60.781L51.0803 63.7588C50.305 64.5341 50.305 65.8063 51.0803 66.5816C51.8555 67.3568 53.1079 67.3568 53.8831 66.5816L66.9831 53.4816C67.7583 52.7064 67.7583 51.454 66.9831 50.6788L53.903 37.559C53.1278 36.7837 51.8754 36.7837 51.1002 37.559C50.3249 38.3342 50.3249 39.5866 51.1002 40.3618L60.781 50.0824H38.5767C37.4834 50.0824 36.5889 50.977 36.5889 52.0703C36.5889 53.1636 37.4834 54.0581 38.5767 54.0581Z" fill="#E6F6F4"/>
</g>
</svg>
